<svg width="701" height="674" viewBox="0 0 701 674" fill="none" xmlns="http://www.w3.org/2000/svg">
<g clip-path="url(#clip0)">
<path d="M321.684 202.442H318.437V113.486C318.437 99.8307 313.013 86.7352 303.357 77.0798C293.702 67.4244 280.606 62 266.952 62H78.4856C71.7244 62 65.0295 63.3317 58.7829 65.9191C52.5364 68.5065 46.8607 72.2988 42.0798 77.0797C37.2989 81.8605 33.5065 87.5362 30.9191 93.7827C28.3317 100.029 27 106.724 27 113.485V601.507C27 615.161 32.4243 628.257 42.0797 637.912C51.7351 647.568 64.8306 652.992 78.4854 652.992H266.951C273.713 652.992 280.408 651.66 286.654 649.073C292.901 646.486 298.576 642.693 303.357 637.912C308.138 633.132 311.93 627.456 314.518 621.209C317.105 614.963 318.437 608.268 318.437 601.507V265.762H321.684L321.684 202.442Z" fill="#3F3D56"/>
<path d="M269.029 75.3947H244.428C245.559 78.1684 245.991 81.1777 245.685 84.1576C245.38 87.1375 244.346 89.9965 242.675 92.4827C241.004 94.969 238.747 97.0061 236.104 98.4148C233.46 99.8234 230.511 100.56 227.515 100.561H119.545C116.55 100.56 113.6 99.8235 110.957 98.4148C108.313 97.0062 106.056 94.969 104.386 92.4828C102.715 89.9965 101.681 87.1375 101.375 84.1576C101.07 81.1777 101.501 78.1684 102.633 75.3947H79.6553C69.4581 75.3947 59.6784 79.4455 52.4679 86.6561C45.2573 93.8666 41.2065 103.646 41.2065 113.843V601.149C41.2065 606.198 42.201 611.197 44.1332 615.862C46.0654 620.527 48.8976 624.766 52.4679 628.336C56.0382 631.906 60.2767 634.738 64.9415 636.671C69.6063 638.603 74.6061 639.597 79.6552 639.597H269.029C274.078 639.597 279.078 638.603 283.743 636.671C288.407 634.738 292.646 631.906 296.216 628.336C299.787 624.766 302.619 620.527 304.551 615.862C306.483 611.198 307.478 606.198 307.478 601.149V601.149V113.843C307.478 108.794 306.483 103.795 304.551 99.1298C302.619 94.4649 299.787 90.2264 296.216 86.6561C292.646 83.0858 288.407 80.2537 283.743 78.3215C279.078 76.3892 274.078 75.3947 269.029 75.3947V75.3947Z" fill="white"/>
<path d="M261.769 279.964H86.9155C85.7468 279.963 84.6263 279.498 83.7999 278.671C82.9735 277.845 82.5087 276.724 82.5074 275.556V172.701C82.5087 171.532 82.9735 170.412 83.7999 169.585C84.6263 168.759 85.7468 168.294 86.9155 168.293H261.769C262.937 168.294 264.058 168.759 264.884 169.585C265.711 170.412 266.175 171.532 266.177 172.701V275.556C266.175 276.724 265.711 277.845 264.884 278.671C264.058 279.498 262.937 279.963 261.769 279.964Z" fill="white"/>
<path d="M203.376 223.205C202.487 222.252 201.414 221.488 200.223 220.957C199.032 220.427 197.746 220.142 196.442 220.119C195.139 220.096 193.844 220.335 192.634 220.822C191.425 221.309 190.326 222.034 189.403 222.955L140.194 272.163C138.894 273.461 137.134 274.19 135.297 274.193C133.461 274.196 131.698 273.471 130.394 272.178L123.106 264.905C122.205 264.003 121.135 263.288 119.958 262.801C118.78 262.313 117.518 262.062 116.244 262.062C114.969 262.062 113.707 262.313 112.53 262.801C111.352 263.288 110.283 264.003 109.382 264.905L95.2764 279.025H253.408V277.012L203.376 223.205Z" fill="#6C63FF"/>
<path d="M261.768 281.464H86.9155C85.3491 281.462 83.8474 280.839 82.7398 279.731C81.6322 278.624 81.0092 277.122 81.0074 275.556V172.701C81.0092 171.135 81.6322 169.633 82.7398 168.525C83.8474 167.418 85.3491 166.795 86.9155 166.793H261.768C263.335 166.795 264.837 167.418 265.944 168.525C267.052 169.633 267.675 171.135 267.677 172.701V275.556C267.675 277.122 267.052 278.624 265.944 279.731C264.837 280.839 263.335 281.462 261.768 281.464ZM86.9155 169.793C86.1445 169.794 85.4053 170.101 84.8601 170.646C84.3149 171.191 84.0083 171.93 84.0074 172.701V275.556C84.0083 276.327 84.3149 277.066 84.8601 277.611C85.4053 278.156 86.1445 278.463 86.9155 278.464H261.768C262.539 278.463 263.279 278.156 263.824 277.611C264.369 277.066 264.676 276.327 264.677 275.556V172.701C264.676 171.93 264.369 171.191 263.824 170.646C263.279 170.101 262.539 169.794 261.768 169.793L86.9155 169.793Z" fill="#CBCBCB"/>
<path d="M251.005 594.85C246.702 594.85 242.497 593.575 238.92 591.185C235.343 588.794 232.555 585.397 230.908 581.423C229.262 577.448 228.831 573.074 229.671 568.855C230.51 564.635 232.582 560.759 235.624 557.717C238.666 554.675 242.542 552.604 246.761 551.764C250.98 550.925 255.354 551.356 259.329 553.002C263.303 554.649 266.701 557.437 269.091 561.014C271.481 564.591 272.757 568.796 272.757 573.098C272.75 578.865 270.456 584.394 266.378 588.472C262.301 592.55 256.772 594.844 251.005 594.85V594.85ZM251.005 553.02C247.033 553.02 243.151 554.197 239.849 556.404C236.547 558.61 233.974 561.746 232.454 565.415C230.935 569.084 230.537 573.121 231.312 577.016C232.086 580.91 233.999 584.488 236.807 587.296C239.615 590.104 243.193 592.017 247.087 592.791C250.982 593.566 255.019 593.168 258.688 591.649C262.357 590.129 265.493 587.556 267.699 584.254C269.906 580.952 271.083 577.07 271.083 573.098C271.077 567.775 268.96 562.672 265.196 558.907C261.432 555.143 256.328 553.026 251.005 553.02Z" fill="#CBCBCB"/>
<path d="M241.609 580.422C241.456 580.422 241.307 580.372 241.186 580.278C241.064 580.185 240.976 580.054 240.937 579.907C240.897 579.759 240.907 579.602 240.966 579.46C241.024 579.318 241.128 579.2 241.261 579.124L251.697 573.098L241.261 567.073C241.101 566.981 240.984 566.829 240.937 566.651C240.889 566.472 240.914 566.283 241.006 566.123C241.098 565.963 241.25 565.846 241.429 565.798C241.607 565.751 241.797 565.776 241.957 565.868L253.436 572.496C253.542 572.557 253.63 572.645 253.691 572.75C253.752 572.856 253.784 572.976 253.784 573.098C253.784 573.22 253.752 573.341 253.691 573.446C253.63 573.552 253.542 573.64 253.436 573.701L241.957 580.329C241.851 580.39 241.731 580.422 241.609 580.422V580.422Z" fill="#CBCBCB"/>
<path d="M257.002 582.839C256.817 582.839 256.64 582.765 256.51 582.635C256.379 582.504 256.306 582.327 256.306 582.143V564.054C256.307 563.87 256.38 563.694 256.511 563.564C256.641 563.434 256.818 563.361 257.002 563.361C257.186 563.361 257.362 563.434 257.493 563.564C257.623 563.694 257.697 563.87 257.698 564.054V582.143C257.697 582.327 257.624 582.504 257.494 582.635C257.363 582.765 257.186 582.839 257.002 582.839V582.839Z" fill="#CBCBCB"/>
<path d="M129.696 323.771C128.829 323.771 127.998 324.116 127.385 324.729C126.772 325.341 126.428 326.173 126.428 327.039C126.428 327.906 126.772 328.737 127.385 329.35C127.998 329.963 128.829 330.307 129.696 330.307H218.989C219.855 330.307 220.687 329.963 221.299 329.35C221.912 328.737 222.257 327.906 222.257 327.039C222.257 326.173 221.912 325.341 221.299 324.729C220.687 324.116 219.855 323.771 218.989 323.771H129.696Z" fill="#CCCCCC"/>
<path d="M79.1956 368.771C78.3288 368.771 77.4976 369.116 76.8847 369.729C76.2719 370.341 75.9276 371.173 75.9276 372.039C75.9276 372.906 76.2719 373.737 76.8847 374.35C77.4976 374.963 78.3288 375.307 79.1956 375.307H269.489C270.355 375.307 271.187 374.963 271.799 374.35C272.412 373.737 272.757 372.906 272.757 372.039C272.757 371.173 272.412 370.341 271.799 369.729C271.187 369.116 270.355 368.771 269.489 368.771H79.1956Z" fill="#CCCCCC"/>
<path d="M79.1956 394.771C78.3288 394.771 77.4976 395.116 76.8847 395.729C76.2719 396.341 75.9276 397.173 75.9276 398.039C75.9276 398.906 76.2719 399.737 76.8847 400.35C77.4976 400.963 78.3288 401.307 79.1956 401.307H269.489C270.355 401.307 271.187 400.963 271.799 400.35C272.412 399.737 272.757 398.906 272.757 398.039C272.757 397.173 272.412 396.341 271.799 395.729C271.187 395.116 270.355 394.771 269.489 394.771H79.1956Z" fill="#CCCCCC"/>
<path d="M79.1956 420.771C78.3288 420.771 77.4976 421.116 76.8847 421.729C76.2719 422.341 75.9276 423.173 75.9276 424.039C75.9276 424.906 76.2719 425.737 76.8847 426.35C77.4976 426.963 78.3288 427.307 79.1956 427.307H269.489C270.355 427.307 271.187 426.963 271.799 426.35C272.412 425.737 272.757 424.906 272.757 424.039C272.757 423.173 272.412 422.341 271.799 421.729C271.187 421.116 270.355 420.771 269.489 420.771H79.1956Z" fill="#CCCCCC"/>
<path d="M79.1956 446.771C78.3288 446.771 77.4976 447.116 76.8847 447.729C76.2719 448.341 75.9276 449.173 75.9276 450.039C75.9276 450.906 76.2719 451.737 76.8847 452.35C77.4976 452.963 78.3288 453.307 79.1956 453.307H269.489C270.355 453.307 271.187 452.963 271.799 452.35C272.412 451.737 272.757 450.906 272.757 450.039C272.757 449.173 272.412 448.341 271.799 447.729C271.187 447.116 270.355 446.771 269.489 446.771H79.1956Z" fill="#CCCCCC"/>
<path d="M79.1956 472.771C78.7664 472.771 78.3414 472.856 77.9449 473.02C77.5485 473.184 77.1882 473.425 76.8847 473.729C76.5813 474.032 76.3406 474.392 76.1763 474.789C76.0121 475.185 75.9276 475.61 75.9276 476.039C75.9276 476.468 76.0121 476.893 76.1763 477.29C76.3406 477.686 76.5813 478.047 76.8847 478.35C77.1882 478.654 77.5485 478.894 77.9449 479.059C78.3414 479.223 78.7664 479.307 79.1956 479.307H269.489C270.355 479.307 271.187 478.963 271.799 478.35C272.412 477.737 272.757 476.906 272.757 476.039C272.757 475.173 272.412 474.341 271.799 473.729C271.187 473.116 270.355 472.771 269.489 472.771H79.1956Z" fill="#CCCCCC"/>
<path d="M79.1956 498.771C78.3288 498.771 77.4976 499.116 76.8847 499.729C76.2719 500.341 75.9276 501.173 75.9276 502.039C75.9276 502.906 76.2719 503.737 76.8847 504.35C77.4976 504.963 78.3288 505.307 79.1956 505.307H269.489C270.355 505.307 271.187 504.963 271.799 504.35C272.412 503.737 272.757 502.906 272.757 502.039C272.757 501.173 272.412 500.341 271.799 499.729C271.187 499.116 270.355 498.771 269.489 498.771H79.1956Z" fill="#CCCCCC"/>
<path d="M514.279 466.041C515.296 465.189 516.114 464.125 516.675 462.923C517.236 461.721 517.526 460.41 517.526 459.084C517.526 457.757 517.235 456.447 516.674 455.245C516.112 454.043 515.294 452.979 514.277 452.128L507.531 333.41L488.285 337.761L501.009 453.705C499.692 455.509 499.082 457.733 499.295 459.956C499.508 462.179 500.529 464.247 502.165 465.767C503.8 467.288 505.937 468.155 508.17 468.206C510.403 468.256 512.576 467.486 514.279 466.041H514.279Z" fill="#9F616A"/>
<path d="M592.431 481.5C591.384 480.685 590.528 479.651 589.924 478.47C589.32 477.29 588.982 475.991 588.934 474.665C588.886 473.339 589.129 472.019 589.647 470.798C590.164 469.576 590.943 468.483 591.929 467.596L594.372 348.711L613.764 352.363L605.246 468.692C606.627 470.446 607.317 472.647 607.185 474.876C607.053 477.106 606.107 479.209 604.527 480.788C602.948 482.367 600.844 483.311 598.614 483.442C596.385 483.574 594.185 482.882 592.431 481.5H592.431Z" fill="#9F616A"/>
<path d="M602.692 658.185L617.792 658.184L622.099 622.957L602.689 622.958L602.692 658.185Z" fill="#9F616A"/>
<path d="M598.84 653.255L628.578 653.254H628.579C633.605 653.254 638.426 655.251 641.98 658.805C645.534 662.359 647.531 667.179 647.531 672.205V672.821L598.841 672.823L598.84 653.255Z" fill="#2F2E41"/>
<path d="M508.465 658.185L523.565 658.184L527.872 599.939L508.462 599.941L508.465 658.185Z" fill="#9F616A"/>
<path d="M504.613 653.255L534.351 653.254H534.352C539.379 653.254 544.199 655.251 547.753 658.805C551.307 662.359 553.304 667.179 553.304 672.205V672.821L504.614 672.823L504.613 653.255Z" fill="#2F2E41"/>
<path d="M570.497 288.212C584.141 288.212 595.202 277.151 595.202 263.507C595.202 249.863 584.141 238.803 570.497 238.803C556.853 238.803 545.793 249.863 545.793 263.507C545.793 277.151 556.853 288.212 570.497 288.212Z" fill="#9F616A"/>
<path d="M600.692 314.495C600.692 314.495 611.672 315.41 612.587 320.9C613.502 326.39 612.587 342.86 612.587 342.86C612.587 342.86 619.906 364.819 612.587 370.309C605.267 375.799 586.052 376.714 586.052 376.714L600.692 314.495Z" fill="#6C63FF"/>
<path d="M507.363 438.933L497.299 455.403C497.299 455.403 500.959 527.686 501.874 529.516C502.6 530.59 502.924 531.887 502.789 533.176V543.241L505.534 631.08C505.534 631.08 498.214 634.739 507.364 637.484C516.513 640.229 528.408 641.144 530.238 631.995C532.068 622.845 532.155 546.618 532.068 544.156L532.983 540.496L547.623 486.512L581.477 561.541L601.607 645.719C601.607 645.719 632.072 649.237 626.582 637.343C621.092 625.448 608.012 536.836 608.012 536.836C608.012 536.836 605.267 527.686 605.267 525.856C605.267 524.026 604.352 523.111 604.352 521.282C604.352 519.452 603.437 513.962 603.437 513.962L597.032 456.318L507.363 438.933Z" fill="#2F2E41"/>
<path d="M545.793 292.131C545.793 292.131 546.342 293.496 587.011 298.563C587.011 298.563 609.842 313.58 610.757 317.24C611.672 320.9 593.372 367.564 593.372 367.564L591.542 403.249C591.542 403.249 600.688 418.679 596.117 466.382C581.819 467.177 523.928 448.354 509.651 440.305C507.482 439.083 502.426 444.473 502.788 443.508C505.533 436.188 502.788 437.103 505.533 435.273C508.278 433.443 512.853 369.394 512.853 369.394C512.853 369.394 507.363 299.856 513.768 298.026C520.173 296.196 545.793 292.131 545.793 292.131Z" fill="#6C63FF"/>
<path d="M516.513 298.941C516.513 298.941 505.534 298.026 502.789 307.175C500.044 316.325 477.169 351.095 481.744 354.755C486.319 358.414 521.088 371.224 522.003 370.309C522.918 369.394 516.513 298.941 516.513 298.941Z" fill="#6C63FF"/>
<path d="M599.266 247.753C598.229 243.894 596.768 240.036 593.791 237.37C590.775 234.688 586.904 233.164 582.869 233.069C578.265 230.4 573.098 228.853 567.785 228.552C562.472 228.25 557.163 229.204 552.287 231.334C551.759 230.269 550.906 229.399 549.851 228.851C549.557 231.392 549.263 233.933 548.969 236.473C547.834 235.619 546.699 234.765 545.565 233.911C545.509 235.415 545.453 236.919 545.397 238.422C544.357 237.528 543.316 236.634 542.276 235.74C542.055 241.065 546.486 245.675 551.497 247.491C556.508 249.306 562.003 248.971 567.327 248.719C569.956 248.595 572.95 248.64 574.724 250.584C576.583 252.62 576.233 255.742 576.278 258.499C576.343 262.376 580.323 260.477 582.319 263.802C583.035 264.994 583.894 266.219 583.868 267.61C583.679 268.869 583.223 270.074 582.529 271.142C581.059 274.177 578.137 283.621 579.532 286.692C582.114 285.247 584.696 283.802 587.278 282.357C587.278 282.357 604.284 266.435 599.266 247.753Z" fill="#2F2E41"/>
<path d="M699.85 673.496H392.85C392.585 673.496 392.33 673.391 392.143 673.203C391.955 673.016 391.85 672.761 391.85 672.496C391.85 672.231 391.955 671.976 392.143 671.789C392.33 671.601 392.585 671.496 392.85 671.496H699.85C700.115 671.496 700.37 671.601 700.557 671.789C700.745 671.976 700.85 672.231 700.85 672.496C700.85 672.761 700.745 673.016 700.557 673.203C700.37 673.391 700.115 673.496 699.85 673.496Z" fill="#CBCBCB"/>
<path d="M441.252 671.895C441.252 671.895 426.315 644.325 390.193 656.247L441.252 671.895Z" fill="#F1F1F1"/>
<path d="M442.153 671.222C442.153 671.222 423.681 647.742 450.342 618.45L442.153 671.222Z" fill="#F1F1F1"/>
</g>
<defs>
<clipPath id="clip0">
<rect width="700.85" height="673.496" fill="white"/>
</clipPath>
</defs>
</svg>
